<?xml version="1.0" standalone="no"?>
<!DOCTYPE svg PUBLIC "-//W3C//DTD SVG 20010904//EN"
 "http://www.w3.org/TR/2001/REC-SVG-20010904/DTD/svg10.dtd">
<svg version="1.0" xmlns="http://www.w3.org/2000/svg"
 width="1280.000000pt" height="640.000000pt" viewBox="0 0 1280.000000 640.000000"
 preserveAspectRatio="xMidYMid meet">
<metadata>
Created by potrace 1.15, written by Peter Selinger 2001-2017
</metadata>
<g transform="translate(0.000000,640.000000) scale(0.100000,-0.100000)"
fill="#000000" stroke="none">
<path d="M658 3854 c-393 -71 -679 -383 -654 -715 10 -138 67 -253 178 -354
125 -114 283 -169 421 -146 39 7 98 25 131 41 66 32 149 98 168 133 10 21 10
21 -8 5 -35 -31 -145 -76 -216 -89 -208 -37 -396 58 -490 249 -30 61 -33 74
-33 162 0 86 3 101 31 160 63 133 192 239 351 290 128 41 208 53 358 53 266 0
543 -92 828 -275 53 -35 214 -138 357 -231 143 -92 266 -170 275 -173 8 -3 34
-34 59 -68 108 -152 301 -286 468 -326 158 -38 442 -30 688 20 275 55 482 125
1010 340 497 202 670 263 885 311 498 112 768 118 1001 21 40 -17 97 -46 129
-67 31 -20 59 -34 61 -32 10 10 -160 169 -231 215 -157 103 -308 145 -520 146
-254 0 -463 -59 -1115 -314 -784 -307 -972 -373 -1245 -441 -480 -118 -782
-65 -1004 177 -71 78 -143 212 -161 301 -36 172 47 350 171 369 24 4 48 -2 79
-18 89 -45 132 -197 96 -338 -9 -36 -24 -76 -33 -90 -12 -19 -7 -17 21 10 21
19 52 64 69 100 29 59 32 73 32 160 0 81 -4 103 -26 150 -54 116 -155 189
-244 176 -114 -15 -206 -108 -260 -265 -27 -75 -35 -186 -21 -266 l7 -41 -138
136 c-154 151 -245 213 -483 331 -295 147 -534 210 -790 208 -69 0 -159 -7
-202 -15z"/>
<path d="M9320 3774 c-216 -25 -392 -61 -596 -120 -194 -56 -308 -97 -789
-281 -513 -198 -691 -255 -945 -307 -532 -107 -753 -108 -1012 -5 -43 17 -103
46 -134 65 -31 19 -59 34 -62 34 -4 0 23 -30 58 -66 157 -158 325 -248 546
-289 68 -13 123 -16 234 -12 284 10 478 67 1455 432 958 357 1377 447 1700
365 252 -64 453 -243 529 -472 54 -160 14 -319 -99 -393 -82 -54 -188 -17
-236 82 -43 90 -35 256 19 342 12 20 5 16 -27 -14 -23 -22 -56 -69 -74 -105
-28 -57 -32 -74 -32 -150 0 -74 4 -93 31 -150 59 -125 150 -186 263 -178 107
8 200 92 264 240 30 68 32 81 32 193 0 97 -4 131 -21 178 -12 31 -20 57 -20
57 1 0 51 -48 111 -106 135 -129 193 -175 315 -246 275 -161 555 -268 815
-313 147 -26 361 -24 493 4 230 48 415 155 527 303 217 286 165 614 -128 805
-98 64 -164 85 -279 91 -148 7 -255 -32 -367 -133 -46 -42 -55 -66 -13 -35 45
33 148 70 228 81 216 30 401 -65 502 -256 24 -44 27 -61 27 -150 0 -93 -2
-105 -33 -166 -22 -47 -53 -86 -101 -131 -84 -80 -155 -121 -263 -154 -396
-119 -818 -41 -1263 232 -301 185 -481 294 -595 360 -69 40 -154 97 -190 127
-146 121 -253 180 -395 218 -64 16 -117 21 -260 24 -99 2 -196 1 -215 -1z"/>
</g>
</svg>
