<?xml version="1.0" standalone="no"?>
<!DOCTYPE svg PUBLIC "-//W3C//DTD SVG 20010904//EN"
 "http://www.w3.org/TR/2001/REC-SVG-20010904/DTD/svg10.dtd">
<svg version="1.0" xmlns="http://www.w3.org/2000/svg"
 width="245.000000pt" height="350.000000pt" viewBox="0 0 245.000000 350.000000"
 preserveAspectRatio="xMidYMid meet">

<g transform="translate(0.000000,350.000000) scale(0.100000,-0.100000)"
fill="#000000" stroke="none">
<path d="M959 3415 l-174 -73 -3 -843 c-2 -791 -1 -843 15 -862 17 -18 18 19
23 819 l5 838 140 58 c77 32 146 58 153 58 9 0 12 -217 12 -1053 l0 -1053 48
-47 48 -47 92 93 92 92 0 688 0 687 75 37 75 38 -2 228 -3 228 -195 87 c-107
49 -202 91 -211 94 -9 3 -93 -27 -190 -67z"/>
<path d="M1552 2812 l-112 -57 0 -657 c0 -362 4 -658 8 -658 31 0 32 27 32
650 l0 626 85 42 c47 23 87 42 90 42 3 0 5 -260 5 -577 l0 -578 135 135 135
135 -2 404 -3 405 -45 26 c-25 14 -83 47 -130 72 l-85 47 -113 -57z"/>
<path d="M623 2784 l-103 -55 0 -408 c0 -395 1 -408 20 -426 20 -18 20 -17 20
386 l0 405 75 37 c42 20 78 37 80 37 3 0 5 -236 5 -524 0 -453 2 -525 15 -536
13 -11 15 53 15 564 0 454 -3 576 -12 576 -7 0 -59 -25 -115 -56z"/>
<path d="M302 2207 c-78 -78 -142 -147 -142 -152 0 -6 239 -249 530 -540 l530
-530 535 535 535 535 -148 148 -147 147 -3 -62 -3 -62 85 -85 86 -86 -463
-463 c-254 -254 -467 -462 -472 -462 -6 0 -218 208 -473 463 l-462 462 85 85
85 85 0 62 c0 35 -3 63 -8 63 -4 0 -71 -64 -150 -143z"/>
<path d="M54 614 c-13 -47 -14 -58 -3 -65 27 -17 46 -9 55 24 l10 32 82 3 c45
2 82 0 82 -3 0 -3 -54 -68 -120 -145 -116 -136 -133 -165 -112 -198 7 -9 45
-12 157 -10 l149 3 18 60 c19 64 16 73 -22 77 -20 3 -26 -3 -35 -37 l-12 -40
-92 -3 -93 -3 84 98 c141 163 169 203 166 232 l-3 26 -147 3 -147 3 -17 -57z"/>
<path d="M430 647 c0 -14 9 -26 23 -32 21 -10 22 -15 25 -158 l3 -147 -26 -10
c-17 -7 -25 -16 -23 -28 5 -25 142 -31 152 -7 8 22 -1 35 -25 35 -18 0 -19 9
-19 185 l0 185 -55 0 c-50 0 -55 -2 -55 -23z"/>
<path d="M1260 655 c-25 -31 9 -63 55 -51 18 5 25 13 25 30 0 36 -56 50 -80
21z"/>
<path d="M1430 647 c0 -14 9 -26 23 -32 21 -10 22 -16 25 -146 2 -125 1 -137
-18 -154 -42 -38 -13 -82 35 -51 23 15 27 15 65 -5 105 -55 222 19 222 141 0
114 -109 193 -203 146 -17 -9 -34 -16 -36 -16 -1 0 -3 32 -3 70 l0 70 -55 0
c-50 0 -55 -2 -55 -23z m247 -152 c31 -22 47 -85 33 -135 -17 -64 -69 -87
-129 -55 -35 17 -41 32 -41 97 0 41 5 54 29 79 33 33 74 38 108 14z"/>
<path d="M1052 648 c-7 -7 -12 -29 -12 -50 0 -36 -2 -38 -30 -38 -25 0 -30 -4
-30 -25 0 -21 5 -25 30 -25 l30 0 0 -110 c0 -99 2 -111 22 -130 25 -23 85 -27
113 -7 25 19 11 37 -30 37 -42 0 -45 9 -45 121 l0 89 46 0 c41 0 45 2 42 23
-2 18 -10 23 -45 25 l-43 3 0 50 c0 41 -3 49 -18 49 -10 0 -23 -5 -30 -12z"/>
<path d="M678 543 c-29 -11 -38 -21 -38 -38 0 -34 14 -38 52 -15 38 23 100 26
117 6 7 -8 11 -27 9 -42 -3 -25 -9 -28 -68 -41 -86 -17 -114 -39 -118 -90 -3
-34 1 -44 24 -62 32 -25 79 -27 134 -5 31 13 44 14 53 5 17 -17 84 -14 91 5 9
23 8 24 -19 34 -24 9 -25 14 -25 87 0 88 -19 140 -60 160 -34 17 -107 15 -152
-4z m142 -193 c0 -23 -7 -33 -30 -45 -58 -30 -110 -9 -83 34 8 12 67 35 106
40 4 1 7 -12 7 -29z"/>
<path d="M1236 545 c-10 -28 -7 -35 19 -45 24 -9 25 -12 25 -105 0 -88 -1 -95
-20 -95 -15 0 -20 -7 -20 -25 0 -24 2 -25 75 -25 69 0 75 2 75 21 0 12 -8 23
-20 26 -18 5 -20 15 -22 132 l-3 126 -51 3 c-40 2 -53 -1 -58 -13z"/>
<path d="M1910 542 c-55 -30 -80 -75 -80 -142 0 -102 67 -165 168 -157 60 4
97 27 126 77 40 67 18 165 -46 213 -39 29 -123 34 -168 9z m135 -56 c45 -45
41 -147 -8 -181 -34 -24 -80 -19 -111 11 -22 23 -26 35 -26 84 0 49 4 61 26
84 35 34 86 35 119 2z"/>
<path d="M2190 528 c0 -21 5 -28 19 -28 26 0 31 -19 31 -106 0 -70 -1 -75 -25
-84 -26 -10 -29 -17 -19 -44 5 -12 21 -16 74 -16 58 0 68 3 73 19 5 21 -9 41
-30 41 -10 0 -13 22 -13 83 0 70 3 87 19 101 25 23 55 17 59 -12 6 -41 62 -21
62 23 0 48 -59 69 -110 40 -32 -18 -40 -18 -40 -2 0 10 -15 13 -50 13 -48 -1
-50 -2 -50 -28z"/>
</g>
</svg>
