<?xml version="1.0" encoding="utf-8"?>
<svg viewBox="0 0 500 500" xmlns="http://www.w3.org/2000/svg">
  <g transform="matrix(0.1, 0, 0, -0.1, 50.32803, 400.999609)" fill="#000000" stroke="none">
    <path d="M 1427.989 3873.483 L 1022.893 3733.297 L 1015.908 2114.446 C 1011.252 595.454 1013.579 495.595 1050.831 459.108 C 1090.408 424.542 1092.737 495.595 1104.377 2031.872 L 1116.018 3641.12 L 1441.958 3752.5 C 1621.225 3813.952 1781.867 3863.88 1798.165 3863.88 C 1819.117 3863.88 1826.102 3447.165 1826.102 1841.757 L 1826.102 -180.366 L 1937.853 -270.623 L 2049.604 -360.879 L 2263.793 -182.287 L 2477.983 -5.615 L 2477.983 1315.583 L 2477.983 2634.859 L 2652.593 2705.912 L 2827.204 2778.886 L 2822.549 3216.724 L 2815.564 3654.563 L 2361.575 3821.633 C 2112.464 3915.729 1891.291 3996.384 1870.337 4002.145 C 1849.384 4007.906 1653.82 3950.296 1427.989 3873.483 Z" style=""/>
    <path d="M 2808.58 2715.514 L 2547.828 2606.054 L 2547.828 1344.388 C 2547.828 649.223 2557.14 80.801 2566.452 80.801 C 2638.624 80.801 2640.953 132.65 2640.953 1329.025 L 2640.953 2531.161 L 2838.845 2611.815 C 2948.268 2655.983 3041.393 2692.47 3048.378 2692.47 C 3055.362 2692.47 3060.019 2193.179 3060.019 1584.43 L 3060.019 474.471 L 3374.319 733.718 L 3688.618 992.964 L 3683.961 1768.784 L 3676.977 2546.523 L 3572.211 2596.453 C 3514.007 2623.338 3378.974 2686.708 3269.552 2734.718 L 3071.66 2824.974 L 2808.58 2715.514 Z" style=""/>
    <path d="M 645.733 2661.745 L 405.934 2556.126 L 405.934 1772.625 C 405.934 1014.088 408.263 989.124 452.497 954.557 C 499.06 919.991 499.06 921.912 499.06 1695.81 L 499.06 2473.55 L 673.67 2544.603 C 771.453 2583.01 855.266 2615.657 859.923 2615.657 C 866.907 2615.657 871.563 2162.454 871.563 1609.396 C 871.563 739.479 876.219 601.214 906.485 580.09 C 936.752 558.967 941.407 681.868 941.407 1663.165 C 941.407 2535.002 934.423 2769.283 913.469 2769.283 C 897.173 2769.283 776.109 2721.275 645.733 2661.745 Z" style=""/>
    <path d="M -143.375 1369.939 C -324.97 1220.153 -473.972 1087.649 -473.972 1078.047 C -473.972 1066.525 82.455 599.881 759.945 41.061 L 1993.861 -976.722 L 3239.419 50.663 L 4484.976 1078.047 L 4140.411 1362.258 L 3798.174 1644.549 L 3791.189 1525.487 L 3784.205 1406.426 L 3982.097 1243.197 L 4182.317 1078.047 L 3104.386 188.928 C 2513.038 -298.84 2017.143 -698.272 2005.502 -698.272 C 1991.533 -698.272 1497.967 -298.84 904.29 190.848 L -171.313 1078.047 L 26.58 1241.277 L 224.472 1404.506 L 224.472 1523.567 C 224.472 1590.779 217.487 1644.549 205.846 1644.549 C 196.534 1644.549 40.549 1521.647 -143.375 1369.939 Z" style=""/>
  </g>
</svg>